<svg width="132" height="76" viewBox="0 0 132 76" fill="none" xmlns="http://www.w3.org/2000/svg">
<path d="M93.1873 0.000137329C88.7387 0.000137329 85.0104 2.88962 84.5148 6.72122C84.2694 8.61989 83.8619 10.4993 83.3038 12.3071C81.1415 19.3094 71.3891 38.349 68.4516 44.0177C67.465 45.9214 67.9339 48.1066 69.646 49.585L77.3246 56.2166C78.1417 56.9222 78.4224 57.9488 78.057 58.8956L75.1795 66.3508C74.9665 66.9026 74.3713 67.2729 73.6982 67.2729H72.8774C71.3071 67.2729 70.0298 68.3761 70.0298 69.7322V71.156C70.0298 73.1196 71.8073 74.7542 74.076 74.8774L94.6188 75.9929C96.1607 76.0628 97.6287 75.6146 98.7741 74.7304H105.211C106.781 74.7304 108.059 73.6272 108.059 72.2711V30.384C108.059 17.9561 105.204 8.12723 103.977 4.47834C103.641 3.47935 102.833 2.64069 101.76 2.17726L97.0091 0.125717C96.8137 0.0412521 96.6028 0.00147247 96.3929 0.00147247V0L93.1873 0.000137329ZM85.9661 12.9201C86.5598 10.9984 86.9928 9.00137 87.2535 6.9853C87.2729 6.83493 87.3006 6.68679 87.3341 6.54073C87.4957 6.97163 87.6693 7.46252 87.852 8.02347C88.6259 10.3998 89.7084 14.4821 90.4688 20.4365C90.5997 21.463 91.0756 22.4115 91.8446 23.1792L93.612 24.9437C93.5799 25.0304 93.5577 25.1209 93.5491 25.2155C93.2638 28.4192 92.8645 31.7777 92.4075 35.1075L86.098 26.0117C86.1382 21.9828 85.4945 19.2613 84.1503 17.7394C84.9387 15.8559 85.5695 14.2047 85.9661 12.9201ZM90.6444 46.4371C90.4278 47.697 90.2127 48.9138 90.0028 50.0738L84.6015 42.2869C84.2208 41.7383 84.0838 41.0923 84.2153 40.4681C84.3993 39.5955 84.5695 38.7421 84.7271 37.9065L90.6444 46.4371ZM85.3601 34.1879C85.5655 32.8217 85.7291 31.5187 85.85 30.2847L91.8554 38.9423C91.6638 40.215 91.4668 41.4723 91.2678 42.704L85.3601 34.1879ZM96.1028 27.4306L99.3603 30.6828C99.2386 34.6489 98.9623 38.2336 98.6924 41.7287C98.3444 46.2355 97.9862 50.8917 97.9573 56.338L90.9474 59.7013C92.1156 53.9663 94.8436 39.8664 96.1028 27.4306ZM74.2488 72.503C73.4281 72.4578 72.7853 71.8668 72.7853 71.1565V69.7327C72.7853 69.6889 72.8263 69.6534 72.877 69.6534H73.6979C75.5591 69.6534 77.205 68.6287 77.7937 67.1039L80.6712 59.6487C81.3685 57.8412 80.8333 55.8816 79.2732 54.5342L71.5945 47.9026C70.6978 47.1282 70.4514 45.9849 70.967 44.9903C71.1976 44.5451 71.4482 44.0603 71.7153 43.5424L73.2306 44.7464C73.7905 45.1913 74.6623 45.1601 75.1776 44.6765C75.4211 44.4479 75.5413 44.159 75.5413 43.8711C75.5413 43.55 75.3916 43.2298 75.0963 42.9951L72.8942 41.2455C73.2259 40.5965 73.5728 39.9156 73.9315 39.2089L75.2154 40.2291C75.7754 40.674 76.6471 40.6428 77.1624 40.1592C77.4059 39.9306 77.5261 39.6418 77.5261 39.3538C77.5261 39.0327 77.3764 38.7126 77.0811 38.4779L75.097 36.9015C75.433 36.2332 75.7752 35.5495 76.1215 34.8548L77.2002 35.7119C77.7602 36.1568 78.6319 36.1256 79.1472 35.642C79.3907 35.4134 79.5109 35.1245 79.5109 34.8366C79.5109 34.5155 79.3612 34.1953 79.0659 33.9606L77.2715 32.5349C77.6075 31.8533 77.9446 31.1662 78.2808 30.4761L79.185 31.1945C79.745 31.6394 80.6167 31.6082 81.132 31.1246C81.3755 30.896 81.4957 30.6072 81.4957 30.3192C81.4957 29.9981 81.346 29.6779 81.0507 29.4433L79.411 28.1404C80.6181 25.6274 81.7825 23.1375 82.8047 20.845C83.8335 24.2264 83.3915 31.0902 81.5034 40.0427C81.252 41.235 81.5122 42.4668 82.2366 43.5109L89.3249 53.7294C88.6073 57.5136 88.028 60.3001 87.7971 61.3914C85.6879 62.814 84.0544 64.718 83.1055 66.9035L80.5261 72.8439L74.2488 72.503ZM94.7776 73.6171L83.4019 72.9996L85.6863 67.7386C86.6732 65.4657 88.5699 63.5648 91.0268 62.3859L97.9544 59.0621V71.002C97.9544 71.7274 97.6187 72.4019 97.0094 72.9012C96.4 73.4004 95.6025 73.6545 94.7776 73.6171ZM100.527 4.306C100.916 4.47374 101.209 4.77848 101.331 5.1423C102.263 7.91302 105.303 17.9219 105.303 30.3842V72.2712C105.303 72.315 105.262 72.3505 105.211 72.3505H100.707C100.709 72.3242 100.71 72.2977 100.71 72.271V57.0395C100.71 51.3673 101.082 46.5477 101.442 41.887C101.805 37.1872 102.18 32.3275 102.18 26.5762C102.18 16.4176 99.9158 7.6825 98.6046 3.47565L100.527 4.306ZM95.3765 2.38018C96.3491 5.20657 99.4241 15.0582 99.4241 26.5763C99.4241 26.7546 99.4226 26.9298 99.4219 27.1066L93.9288 21.6224C93.5324 21.2268 93.2765 20.7132 93.2079 20.176C91.9634 10.4307 89.8825 5.39272 89.1068 3.77921C90.1788 2.90832 91.6169 2.38033 93.1871 2.38033H95.3765V2.38018Z" fill="black"/>
<path d="M38.8127 75.9999C43.2613 75.9999 46.9896 73.1104 47.4852 69.2788C47.7306 67.3801 48.1381 65.5007 48.6962 63.6929C50.8585 56.6906 60.6109 37.651 63.5484 31.9823C64.535 30.0786 64.0661 27.8934 62.354 26.415L54.6754 19.7834C53.8583 19.0778 53.5776 18.0512 53.943 17.1044L56.8205 9.64917C57.0335 9.09743 57.6287 8.72708 58.3018 8.72708H59.1226C60.6929 8.72708 61.9702 7.62389 61.9702 6.26777V4.84396C61.9702 2.88043 60.1927 1.24584 57.924 1.12264L37.3812 0.00713243C35.8393 -0.0627815 34.3713 0.385351 33.2259 1.26959L26.7889 1.26959C25.2186 1.26959 23.9413 2.37278 23.9413 3.7289L23.9413 45.616C23.9413 58.0439 26.7956 67.8728 28.0228 71.5217C28.3588 72.5206 29.1669 73.3593 30.2401 73.8227L34.9909 75.8743C35.1863 75.9587 35.3972 75.9985 35.6071 75.9985V76L38.8127 75.9999ZM46.0339 63.0799C45.4402 65.0016 45.0072 66.9986 44.7465 69.0147C44.7271 69.1651 44.6994 69.3132 44.6659 69.4593C44.5043 69.0284 44.3307 68.5375 44.148 67.9765C43.3741 65.6002 42.2916 61.5179 41.5312 55.5635C41.4003 54.537 40.9244 53.5885 40.1554 52.8208L38.388 51.0563C38.4201 50.9696 38.4423 50.8791 38.4509 50.7845C38.7362 47.5808 39.1355 44.2223 39.5925 40.8925L45.902 49.9883C45.8618 54.0172 46.5055 56.7387 47.8497 58.2606C47.0613 60.1441 46.4305 61.7953 46.0339 63.0799ZM41.3556 29.5629C41.5722 28.303 41.7873 27.0862 41.9972 25.9262L47.3985 33.7131C47.7792 34.2617 47.9162 34.9077 47.7847 35.5319C47.6007 36.4045 47.4305 37.2579 47.2729 38.0935L41.3556 29.5629ZM46.6399 41.8121C46.4345 43.1783 46.2709 44.4813 46.15 45.7153L40.1446 37.0577C40.3362 35.785 40.5332 34.5277 40.7322 33.296L46.6399 41.8121ZM35.8972 48.5694L32.6397 45.3172C32.7614 41.3511 33.0377 37.7664 33.3076 34.2713C33.6556 29.7645 34.0138 25.1083 34.0427 19.662L41.0526 16.2987C39.8844 22.0337 37.1564 36.1336 35.8972 48.5694ZM57.7512 3.49704C58.5719 3.54216 59.2147 4.13324 59.2147 4.84351V6.26732C59.2147 6.31111 59.1737 6.34659 59.123 6.34659H58.3021C56.4409 6.34659 54.795 7.37125 54.2063 8.89615L51.3288 16.3513C50.6315 18.1588 51.1667 20.1184 52.7268 21.4658L60.4055 28.0974C61.3022 28.8718 61.5486 30.0151 61.033 31.0097C60.8024 31.4549 60.5518 31.9397 60.2847 32.4576L58.7694 31.2536C58.2095 30.8087 57.3377 30.8399 56.8224 31.3235C56.5789 31.5521 56.4587 31.841 56.4587 32.1289C56.4587 32.45 56.6084 32.7702 56.9037 33.0049L59.1058 34.7545C58.7741 35.4035 58.4272 36.0844 58.0685 36.7911L56.7846 35.7709C56.2246 35.326 55.3529 35.3572 54.8376 35.8408C54.5941 36.0694 54.4739 36.3582 54.4739 36.6462C54.4739 36.9673 54.6236 37.2874 54.9189 37.5221L56.903 39.0985C56.567 39.7668 56.2248 40.4505 55.8785 41.1452L54.7998 40.2881C54.2398 39.8432 53.3681 39.8744 52.8528 40.358C52.6093 40.5866 52.4891 40.8755 52.4891 41.1634C52.4891 41.4845 52.6388 41.8047 52.9341 42.0394L54.7285 43.4651C54.3925 44.1467 54.0554 44.8338 53.7192 45.5239L52.815 44.8055C52.255 44.3606 51.3833 44.3918 50.868 44.8754C50.6245 45.104 50.5043 45.3928 50.5043 45.6808C50.5043 46.0019 50.654 46.3221 50.9493 46.5567L52.589 47.8596C51.3819 50.3726 50.2175 52.8625 49.1953 55.155C48.1665 51.7736 48.6085 44.9098 50.4966 35.9573C50.748 34.765 50.4878 33.5332 49.7634 32.4891L42.6751 22.2706C43.3927 18.4864 43.972 15.6999 44.2029 14.6086C46.3121 13.186 47.9456 11.282 48.8945 9.09654L51.4739 3.15608L57.7512 3.49704ZM37.2224 2.38287L48.5981 3.00037L46.3137 8.26143C45.3268 10.5343 43.4301 12.4352 40.9732 13.6141L34.0456 16.9379V4.99804C34.0456 4.27262 34.3813 3.59813 34.9906 3.09878C35.6 2.59959 36.3975 2.34546 37.2224 2.38287ZM31.4726 71.694C31.0844 71.5263 30.7913 71.2215 30.6691 70.8577C29.7374 68.087 26.6971 58.0781 26.6971 45.6158L26.6971 3.72875C26.6971 3.68496 26.7382 3.64948 26.7889 3.64948L31.293 3.64948C31.291 3.67576 31.2899 3.70233 31.2899 3.72905V18.9605C31.2899 24.6327 30.918 29.4523 30.5583 34.113C30.1954 38.8128 29.8202 43.6725 29.8202 49.4238C29.8202 59.5824 32.0842 68.3175 33.3954 72.5244L31.4726 71.694ZM36.6235 73.6198C35.6509 70.7934 32.5759 60.9418 32.5759 49.4237C32.5759 49.2454 32.5774 49.0702 32.5781 48.8934L38.0712 54.3776C38.4676 54.7732 38.7235 55.2868 38.7921 55.824C40.0366 65.5693 42.1175 70.6073 42.8932 72.2208C41.8212 73.0917 40.3831 73.6197 38.8129 73.6197H36.6235V73.6198Z" fill="black"/>
</svg>
